<svg id="Layer_1" data-name="Layer 1" xmlns="http://www.w3.org/2000/svg" xmlns:xlink="http://www.w3.org/1999/xlink"
    viewBox="0 0 548.05 399.76">
    <defs>
        <style>
            .cls-1,
            .cls-27 {
                fill: #b20d40;
            }

            .cls-1,
            .cls-10,
            .cls-12,
            .cls-15,
            .cls-18,
            .cls-21,
            .cls-23,
            .cls-24,
            .cls-25,
            .cls-26,
            .cls-30,
            .cls-32,
            .cls-33,
            .cls-6,
            .cls-7,
            .cls-8,
            .cls-9 {
                stroke: #0c0c0c;
                stroke-miterlimit: 10;
            }

            .cls-1,
            .cls-30,
            .cls-32,
            .cls-33,
            .cls-8,
            .cls-9 {
                stroke-width: 0.5px;
            }

            .cls-2,
            .cls-30,
            .cls-7 {
                fill: none;
            }

            .cls-3 {
                fill: #18a8c9;
            }

            .cls-4 {
                fill: #62f5f9;
            }

            .cls-5 {
                opacity: 0.15;
                fill: url(#New_Pattern);
            }

            .cls-6 {
                fill: #d30a40;
            }

            .cls-21,
            .cls-23,
            .cls-24,
            .cls-25,
            .cls-26,
            .cls-6,
            .cls-7 {
                stroke-width: 0.5px;
            }

            .cls-8 {
                fill: #aa093b;
            }

            .cls-9 {
                fill: #d3d3d3;
            }

            .cls-10 {
                fill: #22f2fc;
            }

            .cls-10,
            .cls-12,
            .cls-15,
            .cls-18 {
                stroke-width: 0.43px;
            }

            .cls-11 {
                fill: #c3fcfc;
            }

            .cls-12 {
                fill: #9f0c23;
            }

            .cls-13 {
                fill: #ce194d;
            }

            .cls-14 {
                fill: #f98fa3;
            }

            .cls-15 {
                fill: #e2a51b;
            }

            .cls-16 {
                fill: #efba50;
            }

            .cls-17 {
                fill: #f9d087;
            }

            .cls-18 {
                fill: #258e1c;
            }

            .cls-19 {
                fill: #55bc4a;
            }

            .cls-20 {
                fill: #99e28f;
            }

            .cls-21 {
                fill: #e3e3e3;
            }

            .cls-22 {
                fill: #0c0c0c;
            }

            .cls-23 {
                fill: #2c2c2c;
            }

            .cls-24 {
                fill: #d81637;
            }

            .cls-25 {
                fill: #0e6e7f;
            }

            .cls-26 {
                fill: #5fc481;
            }

            .cls-28 {
                clip-path: url(#clip-path);
            }

            .cls-29 {
                fill: #d8253b;
            }

            .cls-31 {
                fill: #515151;
            }

            .cls-32 {
                fill: #084036;
            }

            .cls-33 {
                fill: #1cc9e2;
            }
        </style>
        <pattern id="New_Pattern" data-name="New Pattern" width="19.96" height="17.27"
            patternTransform="translate(-13.67 -31.02) rotate(5.6)" patternUnits="userSpaceOnUse"
            viewBox="0 0 19.96 17.27">
            <rect class="cls-2" width="19.96" height="17.27" />
            <circle class="cls-3" cx="5.49" cy="5.49" r="5.49" />
            <circle class="cls-3" cx="15.31" cy="12.62" r="4.65" />
        </pattern>
        <clipPath id="clip-path">
            <path id="SVGID" class="cls-1"
                d="M298.13,397H280.27a8.92,8.92,0,0,1-8.92-8.92V29.87h35.7V388A8.92,8.92,0,0,1,298.13,397Z" />
        </clipPath>
    </defs>
    <rect class="cls-4" aria-label="main-screen" x="55.32" y="109.66" width="195.49" height="140.27" />

    <path class="cls-6"
        d="M281,2.81H33.69A27.23,27.23,0,0,0,6.46,30V361.81a24.66,24.66,0,0,0,24.67,24.67H281a11,11,0,0,0,11-11V13.83A11,11,0,0,0,281,2.81ZM232.31,118.65a8.33,8.33,0,0,1,8.34,8.34V230.55a8.33,8.33,0,0,1-8.34,8.34H69.67a8.33,8.33,0,0,1-8.34-8.34V127a8.33,8.33,0,0,1,8.34-8.34Z" />
    <path class="cls-7"
        d="M284.16,21.28V369.76a10.52,10.52,0,0,1-10.43,10.61H37.34A23.55,23.55,0,0,1,14,356.6V36.9A26,26,0,0,1,39.76,10.66h234A10.54,10.54,0,0,1,284.16,21.28Z" />
    <path class="cls-8"
        d="M292,13.84V30.16H159.87a10.66,10.66,0,0,0-10.66,10.66h0a42.35,42.35,0,0,1-42.35,42.35H6.45V30.05A27.23,27.23,0,0,1,33.68,2.82H281A11,11,0,0,1,292,13.84Z" />
    <circle class="cls-9" cx="49.29" cy="43.84" r="29.95" />
    <circle class="cls-10" cx="49.29" cy="43.84" r="25.98" />
    <circle class="cls-4" cx="45.92" cy="33.43" r="13.35" />
    <circle class="cls-11" cx="43.58" cy="27.73" r="5.71" />
    <circle class="cls-12" cx="92.33" cy="22.02" r="7.68" />
    <circle class="cls-13" cx="91.33" cy="18.95" r="3.95" />
    <circle class="cls-14" cx="90.64" cy="17.26" r="1.69" />
    <circle class="cls-15" cx="113.57" cy="22.02" r="7.68" />
    <circle class="cls-16" cx="112.58" cy="18.95" r="3.95" />
    <circle class="cls-17" cx="111.88" cy="17.26" r="1.69" />
    <circle class="cls-18" cx="135.4" cy="22.02" r="7.68" />
    <circle class="cls-19" cx="134.41" cy="18.95" r="3.95" />
    <circle class="cls-20" cx="133.72" cy="17.26" r="1.69" />
    <path class="cls-21"
        d="M250.63,94.43H49.22A8.61,8.61,0,0,0,40.61,103v142.6l33.43,33H250.63a8.62,8.62,0,0,0,8.62-8.61V103A8.62,8.62,0,0,0,250.63,94.43Zm-10,136.12a8.33,8.33,0,0,1-8.34,8.34H69.67a8.33,8.33,0,0,1-8.34-8.34V127a8.33,8.33,0,0,1,8.34-8.34H232.31a8.33,8.33,0,0,1,8.34,8.34Z" />
    <circle class="cls-6" cx="138.97" cy="106.58" r="3.08" />
    <circle class="cls-6" cx="88.57" cy="259.32" r="10.81" />
    <circle class="cls-6" cx="160.84" cy="106.58" r="3.08" />
    <rect class="cls-22" x="179.51" y="248.94" width="52.81" height="1.98" rx="0.99" />
    <rect class="cls-22" x="179.51" y="255.92" width="52.81" height="1.98" rx="0.99" />
    <rect class="cls-22" x="179.51" y="262.9" width="52.81" height="1.98" rx="0.99" />
    <rect class="cls-22" x="179.51" y="269.88" width="52.81" height="1.98" rx="0.99" />
    <circle class="cls-23" aria-label="reveal-button" cx="47.08" cy="290.26" r="18.51" />
    <rect class="cls-24" x="80.38" y="289.76" width="25.75" height="4.53" rx="2.26" />
    <rect class="cls-25" x="113.1" y="289.76" width="25.75" height="4.53" rx="2.26" />
    <rect class="cls-26" aria-label="description-box" x="65.4" y="303.41" width="129.43" height="64.23" rx="7.96" />
    <path class="cls-8"
        d="M530.8,93.53V361.6a19.14,19.14,0,0,1-19.14,19.14H295.49V29.87h81.89A10.64,10.64,0,0,1,388,40.5a42.34,42.34,0,0,0,42.35,42.38h89.76A10.65,10.65,0,0,1,530.8,93.53Z" />
    <path class="cls-6"
        d="M523.51,97.36v261.8a14.43,14.43,0,0,1-14.43,14.43H288.2V42h81.89c5.89,0,10.66,4.51,10.66,10.08a38.86,38.86,0,0,0,12.4,28.3,43.52,43.52,0,0,0,30,11.72h95.14A5.27,5.27,0,0,1,523.51,97.36Z" />
    <path id="SVGID-2" data-name="SVGID" class="cls-27"
        d="M298.13,397H280.27a8.92,8.92,0,0,1-8.92-8.92V29.87h35.7V388A8.92,8.92,0,0,1,298.13,397Z" />
    <g class="cls-28">
        <rect class="cls-29" x="275.26" y="27.34" width="2.36" height="384.84" />
        <rect class="cls-29" x="280.66" y="27.34" width="6.18" height="384.84" />
    </g>
    <path id="SVGID-3" data-name="SVGID" class="cls-30"
        d="M298.13,397H280.27a8.92,8.92,0,0,1-8.92-8.92V29.87h35.7V388A8.92,8.92,0,0,1,298.13,397Z" />
    <rect class="cls-30" x="271.35" y="51.59" width="35.7" height="11.89" />
    <rect class="cls-30" x="271.35" y="51.59" width="27.61" height="11.89" />
    <rect class="cls-30" x="271.35" y="355.73" width="35.7" height="11.89" />
    <rect class="cls-30" x="271.35" y="355.73" width="27.61" height="11.89" />
    <path class="cls-23" aria-label="navigation-button-left"
        d="M206.61,309.08h14.93v17.44H206.61a2.16,2.16,0,0,1-2.16-2.16V311.25A2.16,2.16,0,0,1,206.61,309.08Z" />
    <path class="cls-23" aria-label="navigation-button-up"
        d="M241.22,291.92v15.16H223.78V291.92a2.16,2.16,0,0,1,2.16-2.17h13.11A2.17,2.17,0,0,1,241.22,291.92Z" />
    <path class="cls-23" aria-label="navigation-button-down"
        d="M223.78,328.52h17.44v15.17a2.17,2.17,0,0,1-2.17,2.16H225.94a2.16,2.16,0,0,1-2.16-2.16Z" />
    <path class="cls-23" aria-label="navigation-button-right"
        d="M260.55,311.25v13.11a2.17,2.17,0,0,1-2.17,2.16H244V309.08h14.34A2.17,2.17,0,0,1,260.55,311.25Z" />
    <polygon class="cls-31" aria-label="navigation-button-up-icon"
        points="232.5 292.68 234.41 296 236.33 299.33 232.5 299.33 228.66 299.33 230.58 296 232.5 292.68" />
    <polygon class="cls-31" aria-label="navigation-button-down-icon"
        points="232.5 342.6 230.58 339.28 228.66 335.96 232.5 335.96 236.33 335.96 234.41 339.28 232.5 342.6" />
    <polygon class="cls-31" aria-label="navigation-button-right-icon"
        points="257.46 317.64 254.13 319.56 250.81 321.48 250.81 317.64 250.81 313.81 254.13 315.72 257.46 317.64" />
    <polygon class="cls-31" aria-label="navigation-button-left-icon"
        points="207.53 317.64 210.86 315.72 214.18 313.81 214.18 317.64 214.18 321.48 210.86 319.56 207.53 317.64" />
    <polygon class="cls-23"
        points="244.04 309.09 244.04 326.53 241.22 326.53 241.22 328.52 223.78 328.52 223.78 326.53 221.54 326.53 221.54 309.09 223.78 309.09 223.78 307.08 241.22 307.08 241.22 309.09 244.04 309.09" />
    <rect class="cls-32" aria-label="details-box" x="325.54" y="115.92" width="181.97" height="95.17" rx="4.53" />
    <rect class="cls-33" x="330.33" y="227.68" width="172.39" height="56.5" rx="3.4" />
    <line class="cls-30" x1="365.08" y1="227.68" x2="365.08" y2="284.17" />
    <line class="cls-30" x1="400.22" y1="227.68" x2="400.22" y2="284.17" />
    <line class="cls-30" x1="435.36" y1="227.68" x2="435.36" y2="284.17" />
    <line class="cls-30" x1="470.51" y1="227.68" x2="470.51" y2="284.17" />
    <line class="cls-30" x1="330.33" y1="255.92" x2="502.72" y2="255.92" />
    <circle class="cls-15" cx="488.25" cy="315.7" r="8.62" />
    <circle class="cls-16" cx="487.14" cy="312.25" r="4.43" />
    <circle class="cls-17" cx="486.36" cy="310.36" r="1.89" />
    <rect class="cls-32" x="400.22" y="291.37" width="46.46" height="7.09" rx="2.36" />
    <rect class="cls-32" x="451.41" y="291.37" width="46.46" height="7.09" rx="2.36" />
    <rect class="cls-22" x="313.74" y="338.29" width="198.81" height="1.98" rx="0.99" />
    <rect class="cls-22" x="313.74" y="344.43" width="198.81" height="1.98" rx="0.99" />
    <rect class="cls-22" x="313.74" y="350.56" width="198.81" height="1.98" rx="0.99" />
    <rect class="cls-22" x="313.74" y="356.7" width="198.81" height="1.98" rx="0.99" />
</svg>